<svg width="315" height="315" viewBox="0 0 315 315" fill="none" xmlns="http://www.w3.org/2000/svg">
<path fill-rule="evenodd" clip-rule="evenodd" d="M315 0H0V315H315V0ZM235 157.5C235 114.698 200.302 80 157.5 80V80C114.698 80 80 114.698 80 157.5V157.5C80 200.302 114.698 235 157.5 235V235C200.302 235 235 200.302 235 157.5V157.5Z" fill="black"/>
<path fill-rule="evenodd" clip-rule="evenodd" d="M155.466 75.8574C154.895 76.1718 154.121 76.012 153.737 75.5003L108.538 15.2195C108.154 14.7079 108.307 14.0382 108.878 13.7237C109.449 13.4092 110.223 13.5691 110.607 14.0807L155.806 74.3615C156.19 74.8732 156.038 75.5429 155.466 75.8574Z" fill="#C5B67C" fill-opacity="0.8"/>
<path fill-rule="evenodd" clip-rule="evenodd" d="M159.535 75.8583C160.106 76.1728 160.88 76.013 161.264 75.5013L206.463 15.2205C206.846 14.7088 206.694 14.0391 206.123 13.7247C205.552 13.4102 204.778 13.5701 204.394 14.0817L159.195 74.3625C158.811 74.8742 158.963 75.5439 159.535 75.8583Z" fill="#C5B67C" fill-opacity="0.8"/>
<circle cx="157.5" cy="157.5" r="75.4" stroke="#C5B67C" stroke-width="4.2"/>
<g filter="url(#filter0_i_3222_232)">
<path d="M154.468 72.6578C154.464 72.4888 154.599 72.3491 154.768 72.3491H160.231C160.401 72.3491 160.537 72.4894 160.531 72.6588L160.229 82.0588C160.224 82.2206 160.091 82.3491 159.929 82.3491H155.042C154.88 82.3491 154.747 82.2201 154.742 82.0578L154.468 72.6578Z" fill="#C5B67C"/>
</g>
<defs>
<filter id="filter0_i_3222_232" x="154.468" y="72.3491" width="6.06299" height="13" filterUnits="userSpaceOnUse" color-interpolation-filters="sRGB">
<feFlood flood-opacity="0" result="BackgroundImageFix"/>
<feBlend mode="normal" in="SourceGraphic" in2="BackgroundImageFix" result="shape"/>
<feColorMatrix in="SourceAlpha" type="matrix" values="0 0 0 0 0 0 0 0 0 0 0 0 0 0 0 0 0 0 127 0" result="hardAlpha"/>
<feOffset dy="3"/>
<feGaussianBlur stdDeviation="1.5"/>
<feComposite in2="hardAlpha" operator="arithmetic" k2="-1" k3="1"/>
<feColorMatrix type="matrix" values="0 0 0 0 0 0 0 0 0 0 0 0 0 0 0 0 0 0 0.15 0"/>
<feBlend mode="normal" in2="shape" result="effect1_innerShadow_3222_232"/>
</filter>
</defs>
</svg>
