<svg id="eUgoXnOuSzi1" xmlns="http://www.w3.org/2000/svg" xmlns:xlink="http://www.w3.org/1999/xlink" viewBox="0 0 1920 1080" shape-rendering="geometricPrecision" text-rendering="geometricPrecision" project-id="b230950cf8904230b5c357beb9962195" export-id="276bc401391b45c6b90db8b785e09bed" cached="false"><defs><linearGradient id="eUgoXnOuSzi3-fill" x1="200" y1="68.52" x2="200" y2="316.61" spreadMethod="pad" gradientUnits="userSpaceOnUse" gradientTransform="translate(0 0)"><stop id="eUgoXnOuSzi3-fill-0" offset="0%" stop-color="#d0d0d2"/><stop id="eUgoXnOuSzi3-fill-1" offset="10%" stop-color="#efefef"/><stop id="eUgoXnOuSzi3-fill-2" offset="29%" stop-color="#909091"/><stop id="eUgoXnOuSzi3-fill-3" offset="77%" stop-color="#666"/><stop id="eUgoXnOuSzi3-fill-4" offset="88%" stop-color="#909090"/><stop id="eUgoXnOuSzi3-fill-5" offset="100%" stop-color="#9a9a9c"/></linearGradient><linearGradient id="eUgoXnOuSzi4-fill" x1="200" y1="67.16" x2="200" y2="336.83" spreadMethod="pad" gradientUnits="userSpaceOnUse" gradientTransform="translate(0 0)"><stop id="eUgoXnOuSzi4-fill-0" offset="0%" stop-color="#d0d0d2"/><stop id="eUgoXnOuSzi4-fill-1" offset="6%" stop-color="#e6e6e6"/><stop id="eUgoXnOuSzi4-fill-2" offset="21%" stop-color="#909091"/><stop id="eUgoXnOuSzi4-fill-3" offset="82%" stop-color="#a8a8a8"/><stop id="eUgoXnOuSzi4-fill-4" offset="93%" stop-color="#d1d1d1"/><stop id="eUgoXnOuSzi4-fill-5" offset="100%" stop-color="#9a9a9c"/></linearGradient><linearGradient id="eUgoXnOuSzi6-fill" x1="95.24" y1="200.989988" x2="126.34" y2="195.119988" spreadMethod="pad" gradientUnits="userSpaceOnUse" gradientTransform="translate(0 0)"><stop id="eUgoXnOuSzi6-fill-0" offset="0%" stop-color="#d0d0d2"/><stop id="eUgoXnOuSzi6-fill-1" offset="66%" stop-color="#909091"/></linearGradient><linearGradient id="eUgoXnOuSzi7-fill" x1="100.64" y1="201.379988" x2="137.04" y2="194.509988" spreadMethod="pad" gradientUnits="userSpaceOnUse" gradientTransform="translate(0 0)"><stop id="eUgoXnOuSzi7-fill-0" offset="0%" stop-color="#d0d0d2"/><stop id="eUgoXnOuSzi7-fill-1" offset="66%" stop-color="#909091"/></linearGradient><linearGradient id="eUgoXnOuSzi9-fill" x1="284.333799" y1="135.015407" x2="256.4364" y2="149.718808" spreadMethod="pad" gradientUnits="userSpaceOnUse" gradientTransform="translate(0 0)"><stop id="eUgoXnOuSzi9-fill-0" offset="0%" stop-color="#d0d0d2"/><stop id="eUgoXnOuSzi9-fill-1" offset="66%" stop-color="#909091"/></linearGradient><linearGradient id="eUgoXnOuSzi10-fill" x1="280.3558" y1="138.673807" x2="247.712201" y2="155.877008" spreadMethod="pad" gradientUnits="userSpaceOnUse" gradientTransform="translate(0 0)"><stop id="eUgoXnOuSzi10-fill-0" offset="0%" stop-color="#d0d0d2"/><stop id="eUgoXnOuSzi10-fill-1" offset="66%" stop-color="#909091"/></linearGradient><linearGradient id="eUgoXnOuSzi12-fill" x1="304.759988" y1="200.989988" x2="273.659988" y2="195.119988" spreadMethod="pad" gradientUnits="userSpaceOnUse" gradientTransform="translate(0 0)"><stop id="eUgoXnOuSzi12-fill-0" offset="0%" stop-color="#d0d0d2"/><stop id="eUgoXnOuSzi12-fill-1" offset="66%" stop-color="#909091"/></linearGradient><linearGradient id="eUgoXnOuSzi13-fill" x1="299.349988" y1="201.379988" x2="262.959988" y2="194.509988" spreadMethod="pad" gradientUnits="userSpaceOnUse" gradientTransform="translate(0 0)"><stop id="eUgoXnOuSzi13-fill-0" offset="0%" stop-color="#d0d0d2"/><stop id="eUgoXnOuSzi13-fill-1" offset="66%" stop-color="#909091"/></linearGradient><linearGradient id="eUgoXnOuSzi15-fill" x1="-29.47" y1="-94.36" x2="32.66" y2="104.57" spreadMethod="pad" gradientUnits="userSpaceOnUse" gradientTransform="translate(0 0)"><stop id="eUgoXnOuSzi15-fill-0" offset="0%" stop-color="#e4e4e6"/><stop id="eUgoXnOuSzi15-fill-1" offset="83%" stop-color="#f7f7f7"/><stop id="eUgoXnOuSzi15-fill-2" offset="99%" stop-color="#c5c5c7"/></linearGradient><linearGradient id="eUgoXnOuSzi16-fill" x1="164.64" y1="92.78" x2="230.97" y2="291.44" spreadMethod="pad" gradientUnits="userSpaceOnUse" gradientTransform="translate(0 0)"><stop id="eUgoXnOuSzi16-fill-0" offset="13%" stop-color="rgba(88,91,97,0)"/><stop id="eUgoXnOuSzi16-fill-1" offset="88%" stop-color="rgba(88,91,97,0)"/><stop id="eUgoXnOuSzi16-fill-2" offset="100%" stop-color="rgba(88,91,97,0.3)"/></linearGradient><linearGradient id="eUgoXnOuSzi17-fill" x1="-34.57" y1="-86.97" x2="28.87" y2="72.64" spreadMethod="pad" gradientUnits="userSpaceOnUse" gradientTransform="translate(0 0)"><stop id="eUgoXnOuSzi17-fill-0" offset="0%" stop-color="#585b61"/><stop id="eUgoXnOuSzi17-fill-1" offset="85%" stop-color="#484b4e"/><stop id="eUgoXnOuSzi17-fill-2" offset="100%" stop-color="#4c4f54"/></linearGradient><linearGradient id="eUgoXnOuSzi18-fill" x1="0" y1="-107.57" x2="0" y2="13.12" spreadMethod="pad" gradientUnits="userSpaceOnUse" gradientTransform="translate(0 0)"><stop id="eUgoXnOuSzi18-fill-0" offset="0%" stop-color="#6b6d72"/><stop id="eUgoXnOuSzi18-fill-1" offset="66%" stop-color="rgba(107,109,114,0)"/></linearGradient></defs><g transform="matrix(4.032325 0 0 4.20804 153.57533-301.588866)"><path d="M149.12,110.14c-1.759214,1.011554-2.887904,2.843794-3,4.87-1.42,27.37-2.15,55.38-2.15,83.67s.73,56.3,2.16,83.67c.112096,2.026206,1.240786,3.858446,3,4.87c31.505688,18.085615,70.244312,18.085615,101.75,0c1.759214-1.011554,2.887904-2.843794,3-4.87C255.31,255,256,227,256,198.68s-.73-56.3-2.15-83.67c-.112096-2.026206-1.240786-3.858446-3-4.87-31.508238-18.089442-70.251762-18.089442-101.76,0Z" fill="url(#eUgoXnOuSzi3-fill)"/><path d="M161.65,77.43c-1.95717.598908-3.351694,2.330177-3.52,4.37-2.77,36.89-4.26,76.15-4.26,116.87c0,41.73,1.57,81.91,4.47,119.59.169816,2.042475,1.568901,3.774488,3.53,4.37c24.857093,7.588335,51.412907,7.588335,76.27,0c1.961099-.595512,3.360184-2.327525,3.53-4.37c2.9-37.68,4.47-77.86,4.47-119.59c0-40.72-1.49-80-4.26-116.87-.168306-2.039823-1.56283-3.771092-3.52-4.37-24.989852-7.680424-51.710148-7.680424-76.7,0Z" fill="url(#eUgoXnOuSzi4-fill)"/><g><path d="M117.35,187.33v22.67c0,.690356-.559644,1.25-1.25,1.25h-17.1c-.334176.002663-.655722-.12754-.893895-.361963s-.373463-.553861-.376105-.888037c-.975298-7.525198-.975298-15.144802,0-22.67.11-.84.56-1.25,1.25-1.25h17.12c.331521,0,.649463.131696.883883.366117s.366117.552362.366117.883883Z" fill="url(#eUgoXnOuSzi6-fill)"/><path d="M126.85,210c0,1.794925-1.455075,3.25-3.25,3.25h-17.12c-1.697788.004309-3.10911-1.306516-3.23-3-.494564-3.870415-.745059-7.768118-.75-11.67.000955-3.845522.251481-7.686928.75-11.5.106373-1.700399,1.526386-3.019296,3.23-3h17.12c1.794925,0,3.25,1.455075,3.25,3.25Z" fill="url(#eUgoXnOuSzi7-fill)"/></g><g><path d="M257.51,138.24L271.65,156c.206472.26049.508192.428017.83846.465548s.661885-.058027.92154-.265548l13.38-10.69c.537365-.432921.626527-1.217546.2-1.76-3.929228-6.50094-8.681901-12.466989-14.14-17.75-.201464-.267656-.504126-.440692-.836987-.478517s-.666631.062889-.923013.278517l-13.38,10.69c-.536135.429317-.625446,1.210788-.2,1.75Z" fill="url(#eUgoXnOuSzi9-fill)"/><path d="M264.23,161.88c.538149.674003,1.322139,1.106454,2.179305,1.202112s1.717202-.153325,2.390695-.692112l13.38-10.69c1.332155-1.053737,1.620595-2.959195.66-4.36-2.029864-3.334106-4.267623-6.537108-6.7-9.59-2.399631-3.004881-4.991745-5.850861-7.76-8.52-1.145963-1.255955-3.074017-1.396497-4.39-.32L250.6,139.6c-.674003.538149-1.106454,1.322139-1.202112,2.179305s.153325,1.717202.692112,2.390695Z" fill="url(#eUgoXnOuSzi10-fill)"/></g><g><path d="M282.65,187.33v22.67c0,.690356.559644,1.25,1.25,1.25h17.1c.68809-.00544,1.24456-.56191,1.25-1.25.975298-7.525198.975298-15.144802,0-22.67-.11-.84-.56-1.25-1.25-1.25h-17.1c-.331521,0-.649463.131696-.883883.366117s-.366117.552362-.366117.883883Z" fill="url(#eUgoXnOuSzi12-fill)"/><path d="M273.15,210c0,1.794925,1.455075,3.25,3.25,3.25h17.13c1.697788.004309,3.10911-1.306516,3.23-3c.494564-3.870415.745059-7.768118.75-11.67-.000955-3.845522-.251481-7.686928-.75-11.5-.106373-1.700399-1.526386-3.019296-3.23-3h-17.13c-1.794925,0-3.25,1.455075-3.25,3.25Z" fill="url(#eUgoXnOuSzi13-fill)"/></g><g><circle r="92.82" transform="translate(200 198.68)" fill="url(#eUgoXnOuSzi15-fill)" stroke="#dededf" stroke-miterlimit="10"/><path d="M200,290.5c-50.710786,0-91.82-41.109214-91.82-91.82s41.109214-91.82,91.82-91.82s91.82,41.109214,91.82,91.82c-.060612,50.685658-41.134342,91.759388-91.82,91.82Z" fill="url(#eUgoXnOuSzi16-fill)"/><circle r="84.27" transform="translate(200 198.68)" fill="url(#eUgoXnOuSzi17-fill)"/><circle r="82.18" transform="translate(200 198.68)" fill="url(#eUgoXnOuSzi18-fill)"/></g></g></svg>
